# xmcd
#
# Track frame offsets:
#	150
#	6783
#	15273
#	29365
#	43419
#	57387
#	69255
#	83334
#	97463
#	112534
#	124967
#	138071
#	150405
#	164875
#	179171
#	194021
#	208272
#	222159
#	235370
#	249616
#	265466
#	280580
#	294277
#	306599
#	320260
#
# Disc length: 4454 seconds
#
# Revision: 0
# Processed by: cddbd v1.5.2PL0 Copyright (c) Steve Scherf et al.
# Submitted via: dBpowerAMP V4.0
#
DISCID=72116419
DTITLE=Various Artist - The Story Of The Pre-War Blues disc1
DYEAR=1900
DGENRE=Blues
TTITLE0=Lemuel Jones - Po'Farmer
TTITLE1=Jimmie Strothers - Tennessee Dog
TTITLE2=Nathan Frazier&Frank Patterson - Texas Traveller
TTITLE3=Sylvester Weaver - Guitar Blues
TTITLE4=Jaybird Coleman - Man Trouble Blues
TTITLE5=Ed Bell - Mamlish Blues
TTITLE6=Cliford Gibson - Don't Put That Thing On Me
TTITLE7=Willie Walker - South Carolina Rag
TTITLE8=Blind Gary - You Got To Go Down
TTITLE9=Blind Boy Fuller - Careless Love
TTITLE10=Carl Martin - Crow Jane
TTITLE11=Bobbie Leecan's Need-More Band - Apaloosa Blues
TTITLE12=Barbecue Bob - Barbecue Blues
TTITLE13=Blind Willie McTell - Atlanta Strt
TTITLE14=Peg Leg Howell - Low Down Rounder Blues
TTITLE15=Charley Lincoln - If It Looks Like Jelly Shake
TTITLE16=Fred McMullen - Wait And Listen
TTITLE17=Buddy Moss - Red Rider Blues
TTITLE18=Curly Weaver - No No Blues
TTITLE19=Bumble Bee Slim - No Woman No Nickel
TTITLE20=King Solomon Hill - The Gone Dead Train
TTITLE21=A.C.Forehand And Blind Marie Forehand - Mother's Prayer
TTITLE22=Rev.F.W.McGee - Fifty Miles Of Elbow Room
TTITLE23=Arizona Dranes - Just Look
TTITLE24=Birmingham Jubilee Singers - He Took My Sins Away
EXTD=
EXTT0=
EXTT1=
EXTT2=
EXTT3=
EXTT4=
EXTT5=
EXTT6=
EXTT7=
EXTT8=
EXTT9=
EXTT10=
EXTT11=
EXTT12=
EXTT13=
EXTT14=
EXTT15=
EXTT16=
EXTT17=
EXTT18=
EXTT19=
EXTT20=
EXTT21=
EXTT22=
EXTT23=
EXTT24=
PLAYORDER=
